<svg width="31" height="16" viewBox="0 0 31 16" fill="none" xmlns="http://www.w3.org/2000/svg">
<path d="M22.1676 0.187948L8.16379 12.8399C7.96421 13.0201 7.65916 13.0129 7.46803 12.8239L2.81205 8.21345C2.61585 8.01936 2.61163 7.70418 2.80192 7.50418C5.66808 4.49288 7.84734 1.80056 7.83257 0.126768C7.83173 0.0141129 7.69587 -0.0424253 7.61612 0.0373192L0.148413 7.50503C-0.0494711 7.70291 -0.0494711 8.02316 0.148413 8.22104L7.46634 15.539C7.65747 15.7301 7.96464 15.7373 8.16463 15.5558L22.1203 2.89926C22.3191 2.7191 22.6233 2.725 22.8148 2.91276L27.4991 7.50292C27.7008 7.7008 27.7016 8.02527 27.5012 8.22442L22.8536 12.8272C22.6515 13.0272 22.325 13.0213 22.1296 12.815C20.3757 10.9623 18.0605 10.2037 16.8753 9.91677C16.7509 9.88681 16.6656 10.0391 16.7564 10.1294L22.1676 15.5407C22.3655 15.7385 22.6857 15.7385 22.8836 15.5407L30.1846 8.2396C30.3825 8.04172 30.3825 7.72148 30.1846 7.52359L22.8659 0.204825C22.6752 0.0141132 22.3684 0.00651916 22.1684 0.187104L22.1676 0.187948Z" fill="#C9C9C9"/>
</svg>
