<svg width="32" height="32" viewBox="0 0 32 32" fill="none" xmlns="http://www.w3.org/2000/svg">
<g clip-path="url(#clip0_110_351)">
<path d="M3.80952 0C1.71396 0 0 1.71396 0 3.80952V28.1905C0 30.286 1.71396 32 3.80952 32H28.1905C30.286 32 32 30.286 32 28.1905V3.80952C32 1.71396 30.286 0 28.1905 0H3.80952ZM3.80952 1.52381H28.1905C29.4641 1.52381 30.4762 2.53594 30.4762 3.80952V28.1905C30.4762 29.4641 29.4641 30.4762 28.1905 30.4762H3.80952C2.53594 30.4762 1.52381 29.4641 1.52381 28.1905V3.80952C1.52381 2.53594 2.53594 1.52381 3.80952 1.52381ZM16.7946 4.57143C16.5928 4.57145 16.3993 4.65152 16.2564 4.79408C16.1136 4.93664 16.0332 5.13004 16.0327 5.33185C16.0327 5.33185 16.0244 9.04629 16.0164 12.7693C16.0123 14.6309 16.0075 16.4943 16.0045 17.8973C16.0015 19.3003 16 20.1881 16 20.2619C16 21.645 14.7439 22.7753 13.3125 22.7753C11.8925 22.7753 10.7589 21.6403 10.7589 20.2202C10.7589 18.8002 11.8925 17.6667 13.3125 17.6667C13.3606 17.6667 13.4576 17.6825 13.6235 17.7024C13.7305 17.7152 13.8391 17.7052 13.9419 17.673C14.0448 17.6408 14.1397 17.5871 14.2203 17.5155C14.3008 17.4439 14.3653 17.356 14.4094 17.2577C14.4536 17.1593 14.4763 17.0527 14.4762 16.9449V13.744C14.4762 13.5502 14.4023 13.3637 14.2696 13.2224C14.1369 13.0812 13.9553 12.9958 13.7619 12.9836C13.6432 12.9762 13.4938 12.9613 13.3125 12.9613C9.31286 12.9613 6.05357 16.2206 6.05357 20.2202C6.05357 24.2199 9.31286 27.4792 13.3125 27.4792C17.312 27.4792 20.5714 24.2199 20.5714 20.2202V13.3259C21.6797 14.2123 23.061 14.7738 24.5863 14.7738C24.7944 14.7738 24.9922 14.7615 25.1815 14.744C25.3707 14.7266 25.5466 14.6391 25.6746 14.4987C25.8026 14.3583 25.8736 14.1751 25.8735 13.9851V10.4271C25.8736 10.2345 25.8008 10.0489 25.6696 9.90787C25.5385 9.76678 25.3588 9.6806 25.1667 9.66667C22.7708 9.49477 20.8608 7.62836 20.6116 5.25446C20.5921 5.06713 20.5039 4.89366 20.364 4.76753C20.2241 4.6414 20.0425 4.57154 19.8542 4.57143H16.7946ZM17.5551 6.09524H19.2932C19.8469 8.60853 21.8108 10.5253 24.3497 11.006V13.189C22.7201 13.1062 21.2888 12.2933 20.4464 11.0119C20.3563 10.8748 20.2244 10.7704 20.0702 10.7143C19.916 10.6582 19.7478 10.6533 19.5906 10.7005C19.4335 10.7476 19.2957 10.8442 19.1979 10.976C19.1001 11.1077 19.0474 11.2675 19.0476 11.4315V20.2202C19.0476 23.3962 16.4886 25.9554 13.3125 25.9554C10.1365 25.9554 7.57738 23.3962 7.57738 20.2202C7.57738 17.1722 9.95511 14.7529 12.9524 14.558V16.2158C10.8849 16.4082 9.23512 18.1046 9.23512 20.2202C9.23512 22.4634 11.0693 24.2991 13.3125 24.2991C15.5443 24.2991 17.5238 22.5421 17.5238 20.2619C17.5238 20.2992 17.5252 19.3033 17.5283 17.9003C17.5312 16.4973 17.5362 14.6338 17.5402 12.7723C17.5473 9.42992 17.5537 6.74225 17.5551 6.09524Z" fill="#FAFAFA"/>
</g>
<defs>
<clipPath id="clip0_110_351">
<rect width="32" height="32" fill="white"/>
</clipPath>
</defs>
</svg>
