<svg width="24" height="24" viewBox="0 0 24 24" fill="none" xmlns="http://www.w3.org/2000/svg">
<g clip-path="url(#clip0_294_543)">
<path d="M23.6908 19.0496L13.8464 2.7234C13.4585 2.08023 12.7511 1.68066 12 1.68066C11.2489 1.68066 10.5414 2.08023 10.1535 2.72345L0.309161 19.0496C-0.0916668 19.7144 -0.103526 20.5472 0.278177 21.2232C0.659974 21.8991 1.37932 22.319 2.15557 22.319H21.8444C22.6206 22.319 23.34 21.8991 23.7218 21.2231C24.1035 20.5471 24.0917 19.7143 23.6908 19.0496ZM22.3612 20.4548C22.2561 20.6409 22.0581 20.7565 21.8444 20.7565H2.15557C1.94186 20.7565 1.74382 20.6409 1.63877 20.4549C1.53368 20.2688 1.53696 20.0394 1.64726 19.8565L11.4917 3.5303C11.5985 3.35326 11.7933 3.24324 12 3.24324C12.2067 3.24324 12.4015 3.35326 12.5083 3.5303L22.3526 19.8565C22.463 20.0395 22.4663 20.2688 22.3612 20.4548Z" fill="#F4B507"/>
<path d="M12.0072 8.10938C11.4128 8.10938 10.949 8.42831 10.949 8.99372C10.949 10.7188 11.1519 13.1977 11.1519 14.9229C11.1519 15.3723 11.5434 15.5607 12.0073 15.5607C12.3552 15.5607 12.8481 15.3723 12.8481 14.9229C12.8481 13.1978 13.051 10.7189 13.051 8.99372C13.051 8.42836 12.5726 8.10938 12.0072 8.10938Z" fill="#F4B507"/>
<path d="M12.0218 16.5615C11.384 16.5615 10.9055 17.0689 10.9055 17.6778C10.9055 18.2722 11.3839 18.7941 12.0218 18.7941C12.6162 18.7941 13.1236 18.2722 13.1236 17.6778C13.1236 17.0689 12.6161 16.5615 12.0218 16.5615Z" fill="#F4B507"/>
</g>
<defs>
<clipPath id="clip0_294_543">
<rect width="24" height="24" fill="white"/>
</clipPath>
</defs>
</svg>
