<svg width="32" height="32" viewBox="0 0 32 32" fill="none" xmlns="http://www.w3.org/2000/svg">
<g id="&#233;&#161;&#181;&#233;&#157;&#162;-1">
<g id="Building">
<g id="bank_fill">
<path id="&#229;&#189;&#162;&#231;&#138;&#182;" fill-rule="evenodd" clip-rule="evenodd" d="M16.8944 2.95656L28.2277 9.2899C28.9053 9.62868 29.3333 10.3212 29.3333 11.0787V13.0001C29.3333 13.9205 28.5872 14.6668 27.6667 14.6668H26.6667V25.3334H28C28.7364 25.3334 29.3333 25.9304 29.3333 26.6668C29.3333 27.4032 28.7364 28.0001 28 28.0001H3.99999C3.26362 28.0001 2.66666 27.4032 2.66666 26.6668C2.66666 25.9304 3.26362 25.3334 3.99999 25.3334H5.33332V14.6668H4.33332C3.41284 14.6668 2.66666 13.9205 2.66666 13.0001V11.0787C2.66666 10.3843 3.02631 9.74455 3.60814 9.38179L15.1056 2.95656C15.6687 2.67504 16.3313 2.67504 16.8944 2.95656ZM22.6667 14.6668H9.33332V25.3334H12V17.3334H14.6667V25.3334H17.3333V17.3334H20V25.3334H22.6667V14.6668ZM16 8.00014C15.2636 8.00014 14.6667 8.5971 14.6667 9.33347C14.6667 10.0699 15.2636 10.6668 16 10.6668C16.7364 10.6668 17.3333 10.0699 17.3333 9.33347C17.3333 8.5971 16.7364 8.00014 16 8.00014Z" fill="#3D3C3C"/>
</g>
</g>
</g>
</svg>
