<svg width="32" height="32" viewBox="0 0 32 32" fill="none" xmlns="http://www.w3.org/2000/svg">
<g clip-path="url(#clip0_302_696)">
<path d="M4.53201 28.3189C4.63971 28.37 4.75604 28.3963 4.87337 28.3963C4.96272 28.3963 5.05251 28.3812 5.13821 28.3508L30.1443 19.4864C30.5572 19.3399 30.773 18.8867 30.6269 18.4745L26.5467 6.96354C26.4001 6.5514 25.946 6.33522 25.5347 6.48096L0.528191 15.3446C0.115391 15.4911 -0.100132 15.9445 0.045725 16.3569L4.12617 27.8684C4.19584 28.0665 4.34214 28.2285 4.53201 28.3189ZM25.3169 8.23976L28.8675 18.2561L5.35573 26.591L1.80496 16.5747L25.3169 8.23976Z" fill="#3D3C3C"/>
<path d="M26.8621 3.64939L1.85584 12.513C1.44293 12.6597 1.22719 13.1129 1.37326 13.5251C1.48882 13.8502 1.79436 14.053 2.12057 14.053C2.20826 14.053 2.29806 14.0388 2.38541 14.0076L26.6448 5.40874L30.4602 16.1721C30.5759 16.4972 30.8814 16.7 31.2071 16.7C31.2948 16.7 31.3851 16.686 31.4718 16.6546C31.8847 16.5086 32.1005 16.0549 31.9544 15.6426L27.8741 4.13197C27.7275 3.71983 27.2738 3.50309 26.8621 3.64939Z" fill="#3D3C3C"/>
<path d="M15.3367 22.3729C15.9 22.3729 16.4576 22.2764 16.9928 22.0869C18.2407 21.6447 19.242 20.7432 19.8112 19.5478C20.3809 18.3521 20.4512 17.0066 20.0088 15.7589C19.3085 13.7842 17.431 12.457 15.3367 12.457C14.7734 12.457 14.2163 12.5537 13.681 12.7428C11.1047 13.6566 9.75176 16.4951 10.665 19.0708C11.3646 21.0466 13.2424 22.3729 15.3367 22.3729ZM14.2105 14.238C14.5751 14.1085 14.9539 14.0429 15.3367 14.0429C16.7605 14.0429 18.0374 14.9456 18.5142 16.2892C18.8151 17.1377 18.7676 18.0532 18.38 18.866C17.9929 19.6789 17.3116 20.2925 16.4633 20.5929C16.0986 20.7224 15.7198 20.7879 15.3367 20.7879C13.9125 20.7879 12.6357 19.8854 12.1593 18.5419C11.538 16.7899 12.4581 14.8589 14.2105 14.238Z" fill="#3D3C3C"/>
<path d="M12.9525 17.9196L13.3417 17.7658C13.498 17.7038 13.6472 17.7251 13.6782 17.8122C13.6968 17.8644 13.7169 17.9169 13.7376 17.9691C13.7608 18.0285 13.785 18.0858 13.8092 18.1419C13.851 18.2364 13.7618 18.3618 13.6054 18.4237L13.3523 18.5233C13.1958 18.5853 13.0921 18.7695 13.1208 18.9351L13.142 19.0566C13.1704 19.2222 13.32 19.3064 13.4764 19.2449L13.9715 19.0493C14.1279 18.9872 14.3331 19.0493 14.4445 19.1752C14.6089 19.3604 14.788 19.5123 14.981 19.6319C15.4973 19.9488 16.0507 19.9911 16.6403 19.7574C17.1177 19.569 17.4424 19.2475 17.6156 18.7933C17.7581 18.4207 17.7958 18.0115 17.7302 17.566C17.706 17.3998 17.546 17.3183 17.3896 17.3796L17.1067 17.4916C16.9504 17.5537 16.8477 17.7383 16.8555 17.9061C16.8611 18.0433 16.853 18.1605 16.8297 18.2571C16.7653 18.5539 16.5826 18.7608 16.2821 18.8794C15.9882 18.9961 15.6923 18.9558 15.3947 18.7592C15.3558 18.7329 15.3175 18.7035 15.2802 18.672C15.2198 18.6209 15.3024 18.5233 15.4588 18.4614L15.8314 18.3143C15.9879 18.2524 16.0916 18.0682 16.0629 17.9025L16.0417 17.7811C16.0131 17.6155 15.8637 17.5313 15.7073 17.5928L15.0467 17.8539C14.89 17.9159 14.7296 17.8936 14.6903 17.8028C14.6677 17.7497 14.6449 17.6949 14.6228 17.6383C14.6005 17.5824 14.58 17.5272 14.5604 17.473C14.5271 17.3813 14.6297 17.2563 14.7862 17.1944L15.5296 16.9007C15.6863 16.8387 15.7897 16.6541 15.7611 16.4889L15.7402 16.367C15.7115 16.2016 15.5618 16.1178 15.4055 16.1789L14.655 16.4754C14.4987 16.5374 14.3681 16.5142 14.3727 16.4243C14.3756 16.368 14.3813 16.3144 14.3898 16.262C14.4522 15.8899 14.6393 15.6419 14.9505 15.5187C15.2576 15.3972 15.5309 15.4123 15.769 15.5631C15.8462 15.6114 15.925 15.6801 16.0065 15.7693C16.1195 15.8935 16.3207 15.9584 16.4774 15.8968L16.77 15.7809C16.9264 15.719 16.9992 15.5433 16.9068 15.4032C16.7793 15.2097 16.6132 15.0321 16.4072 14.8703C15.8738 14.4577 15.2623 14.3877 14.5732 14.6605C14.0564 14.8652 13.71 15.2344 13.5351 15.7683C13.4458 16.0392 13.4089 16.3324 13.4242 16.6478C13.4327 16.8155 13.3274 17.0003 13.1715 17.0621L12.8291 17.1974C12.6727 17.2594 12.5693 17.4436 12.5977 17.6093L12.6188 17.7306C12.6468 17.8975 12.7967 17.9815 12.9525 17.9196Z" fill="#3D3C3C"/>
</g>
<defs>
<clipPath id="clip0_302_696">
<rect width="32" height="32" fill="white"/>
</clipPath>
</defs>
</svg>
