<svg width="86" height="85" viewBox="0 0 86 85" fill="none" xmlns="http://www.w3.org/2000/svg">
<g filter="url(#filter0_d_440_1063)">
<rect x="4" width="78" height="77" rx="8" fill="white" shape-rendering="crispEdges"/>
<g clip-path="url(#clip0_440_1063)">
<path fill-rule="evenodd" clip-rule="evenodd" d="M44.2296 12.0657L59.813 20.774C60.7447 21.2399 61.3332 22.1921 61.3332 23.2337V25.8755C61.3332 27.1411 60.3072 28.1672 59.0415 28.1672H57.6665V42.8339H59.4998C60.5124 42.8339 61.3332 43.6547 61.3332 44.6672C61.3332 45.6798 60.5124 46.5006 59.4998 46.5006H26.4998C25.4873 46.5006 24.6665 45.6798 24.6665 44.6672C24.6665 43.6547 25.4873 42.8339 26.4998 42.8339H28.3332V28.1672H26.9582C25.6925 28.1672 24.6665 27.1411 24.6665 25.8755V23.2337C24.6665 22.2789 25.161 21.3992 25.961 20.9004L41.77 12.0657C42.5443 11.6786 43.4554 11.6786 44.2296 12.0657ZM52.1665 28.1672H33.8332V42.8339H37.4998V31.8339H41.1665V42.8339H44.8332V31.8339H48.4998V42.8339H52.1665V28.1672ZM42.9998 19.0006C41.9873 19.0006 41.1665 19.8214 41.1665 20.834C41.1665 21.8465 41.9873 22.6673 42.9998 22.6673C44.0124 22.6673 44.8332 21.8465 44.8332 20.834C44.8332 19.8214 44.0124 19.0006 42.9998 19.0006Z" fill="#E3007E"/>
</g>
<path d="M13.662 66V56.2H18.45C19.682 56.2 20.606 56.4333 21.222 56.9C21.8473 57.3667 22.16 57.9827 22.16 58.748C22.16 59.2613 22.034 59.7093 21.782 60.092C21.53 60.4653 21.1847 60.7547 20.746 60.96C20.3073 61.1653 19.8033 61.268 19.234 61.268L19.5 60.694C20.116 60.694 20.662 60.7967 21.138 61.002C21.614 61.198 21.9827 61.492 22.244 61.884C22.5147 62.276 22.65 62.7567 22.65 63.326C22.65 64.166 22.3187 64.824 21.656 65.3C20.9933 65.7667 20.018 66 18.73 66H13.662ZM15.916 64.292H18.562C19.15 64.292 19.5933 64.1987 19.892 64.012C20.2 63.816 20.354 63.508 20.354 63.088C20.354 62.6773 20.2 62.374 19.892 62.178C19.5933 61.9727 19.15 61.87 18.562 61.87H15.748V60.218H18.17C18.7207 60.218 19.1407 60.1247 19.43 59.938C19.7287 59.742 19.878 59.448 19.878 59.056C19.878 58.6733 19.7287 58.3887 19.43 58.202C19.1407 58.006 18.7207 57.908 18.17 57.908H15.916V64.292ZM27.7971 66.112C26.9944 66.112 26.2804 65.944 25.6551 65.608C25.0391 65.272 24.5491 64.8147 24.1851 64.236C23.8304 63.648 23.6531 62.9807 23.6531 62.234C23.6531 61.478 23.8304 60.8107 24.1851 60.232C24.5491 59.644 25.0391 59.1867 25.6551 58.86C26.2804 58.524 26.9944 58.356 27.7971 58.356C28.5904 58.356 29.2997 58.524 29.9251 58.86C30.5504 59.1867 31.0404 59.6393 31.3951 60.218C31.7497 60.7967 31.9271 61.4687 31.9271 62.234C31.9271 62.9807 31.7497 63.648 31.3951 64.236C31.0404 64.8147 30.5504 65.272 29.9251 65.608C29.2997 65.944 28.5904 66.112 27.7971 66.112ZM27.7971 64.32C28.1611 64.32 28.4877 64.236 28.7771 64.068C29.0664 63.9 29.2951 63.662 29.4631 63.354C29.6311 63.0367 29.7151 62.6633 29.7151 62.234C29.7151 61.7953 29.6311 61.422 29.4631 61.114C29.2951 60.806 29.0664 60.568 28.7771 60.4C28.4877 60.232 28.1611 60.148 27.7971 60.148C27.4331 60.148 27.1064 60.232 26.8171 60.4C26.5277 60.568 26.2944 60.806 26.1171 61.114C25.9491 61.422 25.8651 61.7953 25.8651 62.234C25.8651 62.6633 25.9491 63.0367 26.1171 63.354C26.2944 63.662 26.5277 63.9 26.8171 64.068C27.1064 64.236 27.4331 64.32 27.7971 64.32ZM37.9649 58.356C38.5622 58.356 39.0942 58.4773 39.5609 58.72C40.0369 58.9533 40.4102 59.3173 40.6809 59.812C40.9516 60.2973 41.0869 60.9227 41.0869 61.688V66H38.9029V62.024C38.9029 61.4173 38.7676 60.9693 38.4969 60.68C38.2356 60.3907 37.8622 60.246 37.3769 60.246C37.0316 60.246 36.7189 60.3207 36.4389 60.47C36.1682 60.61 35.9536 60.8293 35.7949 61.128C35.6456 61.4267 35.5709 61.8093 35.5709 62.276V66H33.3869V58.468H35.4729V60.554L35.0809 59.924C35.3516 59.42 35.7389 59.0327 36.2429 58.762C36.7469 58.4913 37.3209 58.356 37.9649 58.356ZM43.0666 66V58.468H45.2506V66H43.0666ZM44.1586 57.418C43.7573 57.418 43.4306 57.3013 43.1786 57.068C42.9266 56.8347 42.8006 56.5453 42.8006 56.2C42.8006 55.8547 42.9266 55.5653 43.1786 55.332C43.4306 55.0987 43.7573 54.982 44.1586 54.982C44.5599 54.982 44.8866 55.094 45.1386 55.318C45.3906 55.5327 45.5166 55.8127 45.5166 56.158C45.5166 56.522 45.3906 56.8253 45.1386 57.068C44.8959 57.3013 44.5693 57.418 44.1586 57.418ZM47.5435 66V58.3C47.5435 57.4507 47.7955 56.774 48.2995 56.27C48.8035 55.7567 49.5222 55.5 50.4555 55.5C50.7729 55.5 51.0762 55.5327 51.3655 55.598C51.6642 55.6633 51.9162 55.766 52.1215 55.906L51.5475 57.488C51.4262 57.404 51.2909 57.3387 51.1415 57.292C50.9922 57.2453 50.8335 57.222 50.6655 57.222C50.3482 57.222 50.1009 57.3153 49.9235 57.502C49.7555 57.6793 49.6715 57.95 49.6715 58.314V59.014L49.7275 59.952V66H47.5435ZM46.3815 60.316V58.636H51.6035V60.316H46.3815ZM52.8355 66V58.468H55.0195V66H52.8355ZM53.9275 57.418C53.5262 57.418 53.1995 57.3013 52.9475 57.068C52.6955 56.8347 52.5695 56.5453 52.5695 56.2C52.5695 55.8547 52.6955 55.5653 52.9475 55.332C53.1995 55.0987 53.5262 54.982 53.9275 54.982C54.3289 54.982 54.6555 55.094 54.9075 55.318C55.1595 55.5327 55.2855 55.8127 55.2855 56.158C55.2855 56.522 55.1595 56.8253 54.9075 57.068C54.6649 57.3013 54.3382 57.418 53.9275 57.418ZM60.6793 66.112C59.8673 66.112 59.1439 65.9487 58.5093 65.622C57.8746 65.286 57.3753 64.824 57.0113 64.236C56.6566 63.648 56.4793 62.9807 56.4793 62.234C56.4793 61.478 56.6566 60.8107 57.0113 60.232C57.3753 59.644 57.8746 59.1867 58.5093 58.86C59.1439 58.524 59.8673 58.356 60.6793 58.356C61.4726 58.356 62.1633 58.524 62.7513 58.86C63.3393 59.1867 63.7733 59.658 64.0533 60.274L62.3593 61.184C62.1633 60.8293 61.9159 60.568 61.6173 60.4C61.3279 60.232 61.0106 60.148 60.6653 60.148C60.2919 60.148 59.9559 60.232 59.6573 60.4C59.3586 60.568 59.1206 60.806 58.9433 61.114C58.7753 61.422 58.6913 61.7953 58.6913 62.234C58.6913 62.6727 58.7753 63.046 58.9433 63.354C59.1206 63.662 59.3586 63.9 59.6573 64.068C59.9559 64.236 60.2919 64.32 60.6653 64.32C61.0106 64.32 61.3279 64.2407 61.6173 64.082C61.9159 63.914 62.1633 63.648 62.3593 63.284L64.0533 64.208C63.7733 64.8147 63.3393 65.286 62.7513 65.622C62.1633 65.9487 61.4726 66.112 60.6793 66.112ZM68.799 66.112C67.9964 66.112 67.2824 65.944 66.657 65.608C66.041 65.272 65.551 64.8147 65.187 64.236C64.8324 63.648 64.655 62.9807 64.655 62.234C64.655 61.478 64.8324 60.8107 65.187 60.232C65.551 59.644 66.041 59.1867 66.657 58.86C67.2824 58.524 67.9964 58.356 68.799 58.356C69.5924 58.356 70.3017 58.524 70.927 58.86C71.5524 59.1867 72.0424 59.6393 72.397 60.218C72.7517 60.7967 72.929 61.4687 72.929 62.234C72.929 62.9807 72.7517 63.648 72.397 64.236C72.0424 64.8147 71.5524 65.272 70.927 65.608C70.3017 65.944 69.5924 66.112 68.799 66.112ZM68.799 64.32C69.163 64.32 69.4897 64.236 69.779 64.068C70.0684 63.9 70.297 63.662 70.465 63.354C70.633 63.0367 70.717 62.6633 70.717 62.234C70.717 61.7953 70.633 61.422 70.465 61.114C70.297 60.806 70.0684 60.568 69.779 60.4C69.4897 60.232 69.163 60.148 68.799 60.148C68.435 60.148 68.1084 60.232 67.819 60.4C67.5297 60.568 67.2964 60.806 67.119 61.114C66.951 61.422 66.867 61.7953 66.867 62.234C66.867 62.6633 66.951 63.0367 67.119 63.354C67.2964 63.662 67.5297 63.9 67.819 64.068C68.1084 64.236 68.435 64.32 68.799 64.32Z" fill="black"/>
</g>
<defs>
<filter id="filter0_d_440_1063" x="0" y="0" width="86" height="85" filterUnits="userSpaceOnUse" color-interpolation-filters="sRGB">
<feFlood flood-opacity="0" result="BackgroundImageFix"/>
<feColorMatrix in="SourceAlpha" type="matrix" values="0 0 0 0 0 0 0 0 0 0 0 0 0 0 0 0 0 0 127 0" result="hardAlpha"/>
<feOffset dy="4"/>
<feGaussianBlur stdDeviation="2"/>
<feComposite in2="hardAlpha" operator="out"/>
<feColorMatrix type="matrix" values="0 0 0 0 0 0 0 0 0 0 0 0 0 0 0 0 0 0 0.25 0"/>
<feBlend mode="normal" in2="BackgroundImageFix" result="effect1_dropShadow_440_1063"/>
<feBlend mode="normal" in="SourceGraphic" in2="effect1_dropShadow_440_1063" result="shape"/>
</filter>
<clipPath id="clip0_440_1063">
<rect width="44" height="44" fill="white" transform="translate(21 8)"/>
</clipPath>
</defs>
</svg>
