<svg width="32" height="32" viewBox="0 0 32 32" fill="none" xmlns="http://www.w3.org/2000/svg">
<g id="&#233;&#161;&#181;&#233;&#157;&#162;-1">
<g id="Building">
<g id="bank_fill">
<path id="&#229;&#189;&#162;&#231;&#138;&#182;" fill-rule="evenodd" clip-rule="evenodd" d="M16.8945 2.95626L28.2278 9.28959C28.9054 9.62838 29.3334 10.3209 29.3334 11.0784V12.9998C29.3334 13.9202 28.5873 14.6665 27.6667 14.6665H26.6667V25.3331H28.0001C28.7365 25.3331 29.3334 25.9301 29.3334 26.6665C29.3334 27.4029 28.7365 27.9998 28.0001 27.9998H4.00008C3.26371 27.9998 2.66675 27.4029 2.66675 26.6665C2.66675 25.9301 3.26371 25.3331 4.00008 25.3331H5.33341V14.6665H4.33341C3.41293 14.6665 2.66675 13.9202 2.66675 12.9998V11.0784C2.66675 10.384 3.0264 9.74425 3.60823 9.38149L15.1057 2.95626C15.6687 2.67474 16.3314 2.67474 16.8945 2.95626ZM22.6667 14.6665H9.33341V25.3331H12.0001V17.3331H14.6667V25.3331H17.3334V17.3331H20.0001V25.3331H22.6667V14.6665ZM16.0001 7.99983C15.2637 7.99983 14.6667 8.59679 14.6667 9.33316C14.6667 10.0696 15.2637 10.6665 16.0001 10.6665C16.7365 10.6665 17.3334 10.0696 17.3334 9.33316C17.3334 8.59679 16.7365 7.99983 16.0001 7.99983Z" fill="#E3007E"/>
</g>
</g>
</g>
</svg>
