<svg width="52" height="52" viewBox="0 0 52 52" fill="none" xmlns="http://www.w3.org/2000/svg">
<rect width="52" height="52" rx="8" fill="#FAFAFA"/>
<g clip-path="url(#clip0_434_1092)">
<path d="M14.5319 32.3189C14.6396 32.37 14.7559 32.3963 14.8732 32.3963C14.9626 32.3963 15.0524 32.3813 15.1381 32.3509L40.1442 23.4865C40.5571 23.34 40.7729 22.8868 40.6267 22.4746L36.5466 10.9636C36.4 10.5515 35.9458 10.3353 35.5346 10.481L10.5281 19.3447C10.1153 19.4912 9.89975 19.9446 10.0456 20.3569L14.1261 31.8684C14.1957 32.0666 14.342 32.2286 14.5319 32.3189ZM35.3167 12.2398L38.8674 22.2562L15.3556 30.5911L11.8048 20.5748L35.3167 12.2398Z" fill="#3D3C3C"/>
<path d="M36.8619 7.64921L11.8557 16.5128C11.4427 16.6595 11.227 17.1128 11.3731 17.5249C11.4886 17.85 11.7942 18.0528 12.1204 18.0528C12.2081 18.0528 12.2979 18.0386 12.3852 18.0075L36.6447 9.40856L40.46 20.1719C40.5757 20.497 40.8812 20.6998 41.2069 20.6998C41.2946 20.6998 41.3849 20.6859 41.4716 20.6544C41.8846 20.5084 42.1003 20.0548 41.9542 19.6424L37.8739 8.13179C37.7274 7.71965 37.2736 7.50291 36.8619 7.64921Z" fill="#3D3C3C"/>
<path d="M25.3365 26.373C25.8998 26.373 26.4574 26.2764 26.9927 26.087C28.2406 25.6448 29.2418 24.7432 29.811 23.5478C30.3808 22.3521 30.451 21.0067 30.0086 19.759C29.3083 17.7842 27.4308 16.457 25.3365 16.457C24.7732 16.457 24.2161 16.5538 23.6809 16.7429C21.1045 17.6566 19.7516 20.4951 20.6649 23.0709C21.3644 25.0467 23.2422 26.373 25.3365 26.373ZM24.2103 18.2381C24.5749 18.1086 24.9538 18.043 25.3365 18.043C26.7603 18.043 28.0372 18.9457 28.514 20.2892C28.8149 21.1377 28.7674 22.0532 28.3798 22.8661C27.9928 23.679 27.3115 24.2926 26.4631 24.5929C26.0984 24.7224 25.7196 24.788 25.3365 24.788C23.9123 24.788 22.6355 23.8854 22.1591 22.542C21.5378 20.7899 22.4579 18.859 24.2103 18.2381Z" fill="#3D3C3C"/>
<path d="M22.9523 21.919L23.3415 21.7651C23.4978 21.7032 23.647 21.7244 23.678 21.8116C23.6965 21.8638 23.7167 21.9163 23.7373 21.9685C23.7606 22.0279 23.7848 22.0852 23.809 22.1413C23.8508 22.2358 23.7616 22.3612 23.6052 22.4231L23.3521 22.5227C23.1956 22.5847 23.0919 22.7689 23.1206 22.9345L23.1418 23.056C23.1702 23.2216 23.3198 23.3058 23.4762 23.2443L23.9713 23.0487C24.1277 22.9866 24.3329 23.0487 24.4443 23.1746C24.6087 23.3598 24.7878 23.5117 24.9808 23.6313C25.4971 23.9482 26.0505 23.9905 26.6401 23.7568C27.1175 23.5684 27.4421 23.2469 27.6154 22.7927C27.7579 22.4201 27.7956 22.0109 27.73 21.5654C27.7058 21.3992 27.5458 21.3177 27.3894 21.379L27.1065 21.491C26.9502 21.553 26.8474 21.7377 26.8553 21.9055C26.8609 22.0427 26.8527 22.1599 26.8295 22.2565C26.7651 22.5533 26.5824 22.7602 26.2819 22.8788C25.988 22.9955 25.6921 22.9552 25.3945 22.7586C25.3556 22.7323 25.3173 22.7029 25.28 22.6714C25.2196 22.6203 25.3022 22.5227 25.4585 22.4608L25.8312 22.3137C25.9877 22.2518 26.0914 22.0676 26.0626 21.9019L26.0415 21.7805C26.0129 21.6149 25.8635 21.5307 25.7071 21.5922L25.0465 21.8533C24.8898 21.9153 24.7294 21.893 24.6901 21.8022C24.6674 21.7491 24.6447 21.6943 24.6225 21.6376C24.6003 21.5818 24.5798 21.5266 24.5602 21.4724C24.5269 21.3807 24.6295 21.2557 24.786 21.1938L25.5294 20.9001C25.6861 20.8381 25.7895 20.6535 25.7609 20.4883L25.74 20.3664C25.7113 20.201 25.5616 20.1171 25.4052 20.1783L24.6548 20.4748C24.4985 20.5368 24.3679 20.5136 24.3725 20.4237C24.3754 20.3674 24.381 20.3138 24.3896 20.2613C24.452 19.8892 24.6391 19.6413 24.9503 19.5181C25.2574 19.3966 25.5306 19.4116 25.7688 19.5625C25.846 19.6108 25.9248 19.6795 26.0063 19.7687C26.1193 19.8929 26.3205 19.9578 26.4772 19.8962L26.7698 19.7803C26.9262 19.7184 26.9989 19.5427 26.9066 19.4026C26.7791 19.2091 26.613 19.0315 26.407 18.8697C25.8736 18.4571 25.262 18.3871 24.573 18.6599C24.0562 18.8646 23.7098 19.2338 23.5349 19.7677C23.4456 20.0386 23.4087 20.3318 23.424 20.6472C23.4325 20.8149 23.3272 20.9997 23.1713 21.0615L22.8289 21.1968C22.6724 21.2588 22.5691 21.443 22.5975 21.6087L22.6186 21.73C22.6466 21.8968 22.7965 21.9809 22.9523 21.919Z" fill="#3D3C3C"/>
</g>
<path d="M7.4798 46.12C6.9398 46.12 6.43647 46.0333 5.9698 45.86C5.5098 45.68 5.1098 45.4267 4.7698 45.1C4.4298 44.7733 4.16314 44.39 3.9698 43.95C3.78314 43.51 3.6898 43.0267 3.6898 42.5C3.6898 41.9733 3.78314 41.49 3.9698 41.05C4.16314 40.61 4.4298 40.2267 4.7698 39.9C5.11647 39.5733 5.5198 39.3233 5.9798 39.15C6.4398 38.97 6.94314 38.88 7.4898 38.88C8.09647 38.88 8.64314 38.9867 9.1298 39.2C9.62314 39.4067 10.0365 39.7133 10.3698 40.12L9.32981 41.08C9.08981 40.8067 8.82314 40.6033 8.5298 40.47C8.23647 40.33 7.91647 40.26 7.5698 40.26C7.24314 40.26 6.94314 40.3133 6.6698 40.42C6.39647 40.5267 6.1598 40.68 5.9598 40.88C5.7598 41.08 5.60314 41.3167 5.4898 41.59C5.38314 41.8633 5.3298 42.1667 5.3298 42.5C5.3298 42.8333 5.38314 43.1367 5.4898 43.41C5.60314 43.6833 5.7598 43.92 5.9598 44.12C6.1598 44.32 6.39647 44.4733 6.6698 44.58C6.94314 44.6867 7.24314 44.74 7.5698 44.74C7.91647 44.74 8.23647 44.6733 8.5298 44.54C8.82314 44.4 9.08981 44.19 9.32981 43.91L10.3698 44.87C10.0365 45.2767 9.62314 45.5867 9.1298 45.8C8.64314 46.0133 8.09314 46.12 7.4798 46.12ZM13.7282 46.08C13.1549 46.08 12.6449 45.96 12.1982 45.72C11.7582 45.48 11.4082 45.1533 11.1482 44.74C10.8949 44.32 10.7682 43.8433 10.7682 43.31C10.7682 42.77 10.8949 42.2933 11.1482 41.88C11.4082 41.46 11.7582 41.1333 12.1982 40.9C12.6449 40.66 13.1549 40.54 13.7282 40.54C14.2949 40.54 14.8016 40.66 15.2482 40.9C15.6949 41.1333 16.0449 41.4567 16.2982 41.87C16.5516 42.2833 16.6782 42.7633 16.6782 43.31C16.6782 43.8433 16.5516 44.32 16.2982 44.74C16.0449 45.1533 15.6949 45.48 15.2482 45.72C14.8016 45.96 14.2949 46.08 13.7282 46.08ZM13.7282 44.8C13.9882 44.8 14.2216 44.74 14.4282 44.62C14.6349 44.5 14.7982 44.33 14.9182 44.11C15.0382 43.8833 15.0982 43.6167 15.0982 43.31C15.0982 42.9967 15.0382 42.73 14.9182 42.51C14.7982 42.29 14.6349 42.12 14.4282 42C14.2216 41.88 13.9882 41.82 13.7282 41.82C13.4682 41.82 13.2349 41.88 13.0282 42C12.8216 42.12 12.6549 42.29 12.5282 42.51C12.4082 42.73 12.3482 42.9967 12.3482 43.31C12.3482 43.6167 12.4082 43.8833 12.5282 44.11C12.6549 44.33 12.8216 44.5 13.0282 44.62C13.2349 44.74 13.4682 44.8 13.7282 44.8ZM20.991 40.54C21.4176 40.54 21.7976 40.6267 22.131 40.8C22.471 40.9667 22.7376 41.2267 22.931 41.58C23.1243 41.9267 23.221 42.3733 23.221 42.92V46H21.661V43.16C21.661 42.7267 21.5643 42.4067 21.371 42.2C21.1843 41.9933 20.9176 41.89 20.571 41.89C20.3243 41.89 20.101 41.9433 19.901 42.05C19.7076 42.15 19.5543 42.3067 19.441 42.52C19.3343 42.7333 19.281 43.0067 19.281 43.34V46H17.721V40.62H19.211V42.11L18.931 41.66C19.1243 41.3 19.401 41.0233 19.761 40.83C20.121 40.6367 20.531 40.54 20.991 40.54ZM26.835 46.08C26.2017 46.08 25.7084 45.92 25.355 45.6C25.0017 45.2733 24.825 44.79 24.825 44.15V39.43H26.385V44.13C26.385 44.3567 26.445 44.5333 26.565 44.66C26.685 44.78 26.8484 44.84 27.055 44.84C27.3017 44.84 27.5117 44.7733 27.685 44.64L28.105 45.74C27.945 45.8533 27.7517 45.94 27.525 46C27.305 46.0533 27.075 46.08 26.835 46.08ZM23.995 41.94V40.74H27.725V41.94H23.995ZM32.2807 46V44.95L32.1807 44.72V42.84C32.1807 42.5067 32.0774 42.2467 31.8707 42.06C31.6707 41.8733 31.3607 41.78 30.9407 41.78C30.6541 41.78 30.3707 41.8267 30.0907 41.92C29.8174 42.0067 29.5841 42.1267 29.3907 42.28L28.8307 41.19C29.1241 40.9833 29.4774 40.8233 29.8907 40.71C30.3041 40.5967 30.7241 40.54 31.1507 40.54C31.9707 40.54 32.6074 40.7333 33.0607 41.12C33.5141 41.5067 33.7407 42.11 33.7407 42.93V46H32.2807ZM30.6407 46.08C30.2207 46.08 29.8607 46.01 29.5607 45.87C29.2607 45.7233 29.0307 45.5267 28.8707 45.28C28.7107 45.0333 28.6307 44.7567 28.6307 44.45C28.6307 44.13 28.7074 43.85 28.8607 43.61C29.0207 43.37 29.2707 43.1833 29.6107 43.05C29.9507 42.91 30.3941 42.84 30.9407 42.84H32.3707V43.75H31.1107C30.7441 43.75 30.4907 43.81 30.3507 43.93C30.2174 44.05 30.1507 44.2 30.1507 44.38C30.1507 44.58 30.2274 44.74 30.3807 44.86C30.5407 44.9733 30.7574 45.03 31.0307 45.03C31.2907 45.03 31.5241 44.97 31.7307 44.85C31.9374 44.7233 32.0874 44.54 32.1807 44.3L32.4207 45.02C32.3074 45.3667 32.1007 45.63 31.8007 45.81C31.5007 45.99 31.1141 46.08 30.6407 46.08ZM38.4226 40.54C38.8493 40.54 39.2293 40.6267 39.5626 40.8C39.9026 40.9667 40.1693 41.2267 40.3626 41.58C40.556 41.9267 40.6526 42.3733 40.6526 42.92V46H39.0926V43.16C39.0926 42.7267 38.996 42.4067 38.8026 42.2C38.616 41.9933 38.3493 41.89 38.0026 41.89C37.756 41.89 37.5326 41.9433 37.3326 42.05C37.1393 42.15 36.986 42.3067 36.8726 42.52C36.766 42.7333 36.7126 43.0067 36.7126 43.34V46H35.1526V40.62H36.6426V42.11L36.3626 41.66C36.556 41.3 36.8326 41.0233 37.1926 40.83C37.5526 40.6367 37.9626 40.54 38.4226 40.54ZM44.2667 46.08C43.6333 46.08 43.14 45.92 42.7867 45.6C42.4333 45.2733 42.2567 44.79 42.2567 44.15V39.43H43.8167V44.13C43.8167 44.3567 43.8767 44.5333 43.9967 44.66C44.1167 44.78 44.28 44.84 44.4867 44.84C44.7333 44.84 44.9433 44.7733 45.1167 44.64L45.5367 45.74C45.3767 45.8533 45.1833 45.94 44.9567 46C44.7367 46.0533 44.5067 46.08 44.2667 46.08ZM41.4267 41.94V40.74H45.1567V41.94H41.4267ZM46.4124 46V40.62H47.9724V46H46.4124ZM47.1924 39.87C46.9057 39.87 46.6724 39.7867 46.4924 39.62C46.3124 39.4533 46.2224 39.2467 46.2224 39C46.2224 38.7533 46.3124 38.5467 46.4924 38.38C46.6724 38.2133 46.9057 38.13 47.1924 38.13C47.479 38.13 47.7124 38.21 47.8924 38.37C48.0724 38.5233 48.1624 38.7233 48.1624 38.97C48.1624 39.23 48.0724 39.4467 47.8924 39.62C47.719 39.7867 47.4857 39.87 47.1924 39.87Z" fill="#3D3C3C"/>
<defs>
<clipPath id="clip0_434_1092">
<rect width="32" height="32" fill="white" transform="translate(10 4)"/>
</clipPath>
</defs>
</svg>
