<svg width="24" height="24" viewBox="0 0 24 24" fill="none" xmlns="http://www.w3.org/2000/svg">
<g clip-path="url(#clip0_122_393)">
<path d="M12.0855 -0.0078125C7.16625 -0.0078125 3 4.18244 3 9.14519C3 14.3427 7.82925 19.6579 11.0775 23.3937C11.0903 23.4087 11.6153 23.9914 12.2618 23.9914H12.3187C12.966 23.9914 13.4873 23.4087 13.5 23.3937C16.548 19.8897 21 14.1109 21 9.14519C21 4.18169 17.7502 -0.0078125 12.0855 -0.0078125ZM12.3862 22.3872C12.36 22.4134 12.3218 22.4427 12.288 22.4674C12.2535 22.4434 12.216 22.4134 12.1882 22.3872L11.796 21.9357C8.7165 18.4032 4.49925 13.5649 4.49925 9.14444C4.49925 4.99544 7.97325 1.49069 12.0848 1.49069C17.2065 1.49069 19.4993 5.33444 19.4993 9.14444C19.4993 12.4999 17.106 16.9564 12.3862 22.3872ZM12.0262 4.53344C9.5415 4.53344 7.52625 6.54794 7.52625 9.03344C7.52625 11.5189 9.5415 13.5334 12.0262 13.5334C14.511 13.5334 16.5262 11.5182 16.5262 9.03344C16.5262 6.54869 14.5118 4.53344 12.0262 4.53344ZM12.0262 12.0334C10.3717 12.0334 8.99175 10.6549 8.99175 9.00044C8.99175 7.34594 10.3373 6.00044 11.9918 6.00044C13.647 6.00044 14.9918 7.34594 14.9918 9.00044C14.9925 10.6549 13.6815 12.0334 12.0262 12.0334Z" fill="#FAFAFA"/>
</g>
<defs>
<clipPath id="clip0_122_393">
<rect width="24" height="24" fill="white"/>
</clipPath>
</defs>
</svg>
