<svg width="101" height="48" viewBox="0 0 101 48" fill="none" xmlns="http://www.w3.org/2000/svg">
<g clip-path="url(#clip0_104_257)">
<path d="M91.1094 36.4121C88.141 40.0518 83.6083 42.3724 78.5213 42.3724L18.9067 42.4335C12.0461 42.4335 8.31402 47.6121 3.6089 48.0274C3.47341 48.0274 3.42415 47.8564 3.535 47.7953C7.10695 45.9022 9.27476 41.5663 6.09695 38.8915L5.91219 38.7449C4.04 37.2793 2.73439 35.5572 1.67512 33.4197C0.603537 31.2823 0 28.864 0 26.3113C0 19.6549 4.07695 13.951 9.89061 11.5205C7.63659 14.2808 6.28171 17.7984 6.28171 21.6213C6.28171 25.4442 8.09232 30.0732 11.0238 32.98C13.9552 35.8869 18.0076 37.6823 22.4787 37.6823H84.803C87.0448 37.6823 89.1756 37.2304 91.1094 36.4121Z" fill="#E3007E"/>
<path d="M94.7183 26.3111C94.7183 30.134 93.3634 33.6515 91.1094 36.4118C89.1756 37.2302 87.0325 37.6821 84.8031 37.6821H22.4787C18.0076 37.6821 13.9553 35.8866 11.0238 32.9798C8.09235 30.0729 6.28174 26.0546 6.28174 21.621C6.28174 17.1874 7.63662 14.2805 9.89064 11.5202C11.8244 10.7019 13.9676 10.25 16.197 10.25H78.5214C82.9925 10.25 87.0448 12.0454 89.9762 14.9523C92.9077 17.8592 94.7183 21.8775 94.7183 26.3111Z" fill="#FFDD07"/>
<path d="M101 21.6214C101 30.1954 96.9231 33.9817 91.1094 36.4122C93.3634 33.6519 94.7183 30.1344 94.7183 26.3115C94.7183 22.4886 92.9077 17.8595 89.9762 14.9527C87.0448 12.0458 82.9925 10.2504 78.5214 10.2504H16.197C13.9553 10.2504 11.8244 10.7023 9.89062 11.5206C12.859 7.88092 17.3917 5.56031 22.4787 5.56031L82.0933 5.49924C89.0401 5.49924 95.3465 3.67939 97.7853 0.17405C97.8468 0.0763403 98.007 0.125192 98.007 0.24733C98.007 3.97252 93.8561 6.6229 96.1964 9.79848C98.5366 12.974 101 16.0275 101 21.6214Z" fill="#F1921F"/>
<path d="M32.4307 27.1909H29.0312L28.5632 28.7787H25.5085L29.1421 19.1787H32.4061L36.0396 28.7787H32.9111L32.4307 27.1909ZM31.8149 25.1146L30.7433 21.6703L29.684 25.1146H31.8149Z" fill="#3D3C3C"/>
<path d="M40.8679 25.2984V23.3075H45.4868V27.3991C44.6 27.9976 43.824 28.4007 43.1343 28.6205C42.4568 28.8404 41.6439 28.9503 40.7201 28.9503C39.7963 28.9503 38.6385 28.7549 37.9118 28.364C37.1851 27.9732 36.6308 27.3991 36.2244 26.6297C35.8302 25.8602 35.6208 24.9808 35.6208 23.9793C35.6208 22.9778 35.8426 22.0251 36.2737 21.2434C36.7048 20.4739 37.3452 19.8755 38.1828 19.4846C38.8356 19.1793 39.7224 19.0205 40.831 19.0205C41.9395 19.0205 42.7032 19.1182 43.2328 19.3136C43.7624 19.5091 44.2058 19.8022 44.5507 20.2052C44.8956 20.6083 45.1666 21.1213 45.339 21.7442L42.4568 22.2571C42.3337 21.8907 42.1366 21.622 41.8533 21.4266C41.57 21.2312 41.2128 21.1335 40.7694 21.1335C40.1166 21.1335 39.5869 21.3533 39.2051 21.8052C38.811 22.2571 38.6262 22.9778 38.6262 23.9549C38.6262 24.932 38.8233 25.7381 39.2174 26.1778C39.6116 26.6175 40.1658 26.8495 40.8679 26.8495C41.57 26.8495 41.5207 26.8007 41.8287 26.703C42.1366 26.6052 42.4815 26.4465 42.8756 26.2144V25.3106H40.8802L40.8679 25.2984Z" fill="#3D3C3C"/>
<path d="M46.1274 23.9788C46.1274 22.4154 46.5709 21.1941 47.4454 20.3147C48.3199 19.4353 49.5516 19.0078 51.1282 19.0078C52.7048 19.0078 53.9857 19.4353 54.8479 20.2903C55.7224 21.1452 56.1535 22.3544 56.1535 23.8933C56.1535 25.4322 55.9688 25.933 55.587 26.6536C55.2051 27.3742 54.6509 27.9361 53.9365 28.3269C53.2221 28.73 52.3229 28.9254 51.2513 28.9254C50.1798 28.9254 49.256 28.7544 48.5416 28.4124C47.8272 28.0704 47.2483 27.5208 46.8049 26.7758C46.3615 26.0307 46.1398 25.0903 46.1398 23.9788H46.1274ZM49.1205 23.991C49.1205 24.9559 49.3052 25.6521 49.6624 26.0796C50.0196 26.507 50.5246 26.7147 51.1405 26.7147C51.7563 26.7147 52.286 26.5071 52.6309 26.0918C52.988 25.6765 53.1605 24.9315 53.1605 23.8567C53.1605 22.7819 52.9757 22.2933 52.6062 21.878C52.2367 21.4628 51.744 21.2551 51.1159 21.2551C50.4877 21.2551 50.032 21.4628 49.6624 21.8903C49.2929 22.3177 49.1205 23.0139 49.1205 23.991Z" fill="#3D3C3C"/>
<path d="M57.0525 28.7787V19.1787H62.0409C62.9647 19.1787 63.6668 19.252 64.1594 19.4108C64.6521 19.5696 65.0463 19.8627 65.3419 20.2902C65.6375 20.7176 65.7853 21.2306 65.7853 21.8413C65.7853 22.452 65.6744 22.8306 65.4404 23.2215C65.2064 23.6123 64.8985 23.9176 64.492 24.1619C64.2333 24.3207 63.8885 24.4428 63.445 24.5405C63.8022 24.6627 64.0609 24.7726 64.221 24.8947C64.3319 24.968 64.492 25.139 64.7014 25.3955C64.9108 25.652 65.0463 25.8474 65.1202 25.994L66.5736 28.7787H63.1987L61.5975 25.8474C61.4004 25.4688 61.2157 25.2245 61.0555 25.1024C60.8338 24.9558 60.5998 24.8825 60.3165 24.8825H60.0579V28.7787H57.0525ZM60.0579 23.0627H61.3142C61.4497 23.0627 61.7207 23.0138 62.1025 22.9283C62.2996 22.8917 62.4597 22.794 62.5829 22.623C62.706 22.4642 62.7676 22.281 62.7676 22.0612C62.7676 21.7558 62.6691 21.5115 62.472 21.3528C62.2749 21.1818 61.9054 21.1085 61.3511 21.1085H60.0332V23.0627H60.0579Z" fill="#3D3C3C"/>
<path d="M72.7198 27.1913H69.3203L68.8522 28.7791H65.7976L69.4311 19.1791H72.6952L76.3287 28.7791H73.2002L72.7198 27.1913ZM68.803 16.6387H71.0939L72.1778 18.5929H70.9092L68.803 16.6387ZM72.104 25.115L71.0324 21.6707L69.9731 25.115H72.104Z" fill="#3D3C3C"/>
</g>
<defs>
<clipPath id="clip0_104_257">
<rect width="101" height="48" fill="white"/>
</clipPath>
</defs>
</svg>
