<svg width="16" height="16" viewBox="0 0 16 16" fill="none" xmlns="http://www.w3.org/2000/svg">
<path d="M11.1533 0.0692203C10.8993 -0.0577905 10.609 -0.00335728 10.3913 0.178087C10.1735 0.359531 10.0828 0.631697 10.1554 0.903863C10.3368 1.64778 10.4094 2.42799 10.355 3.24449C10.1191 7.05481 7.05268 10.1031 3.24236 10.3389C2.46215 10.3934 1.68194 10.3208 0.901731 10.1575C0.629565 10.0849 0.357399 10.1756 0.175955 10.4115C-0.0054885 10.6293 -0.0417773 10.9196 0.0670891 11.1736C1.44606 14.1311 4.38546 16 7.65145 16C7.7966 16 7.9599 16 8.10506 15.9819C12.2964 15.7641 15.7438 12.2985 15.9797 8.10719C16.1793 4.6779 14.2923 1.52077 11.1533 0.0692203ZM15.2539 8.0709C15.0544 11.8994 11.8972 15.0565 8.06877 15.2561C4.92979 15.4194 2.04483 13.6957 0.738432 10.8651C1.59122 11.0647 2.44401 11.1192 3.29679 11.0647C7.47 10.7926 10.8267 7.45399 11.0989 3.28078C11.1533 2.3917 11.0807 1.53892 10.8811 0.722419C13.7117 2.04696 15.4354 4.93192 15.2539 8.0709Z" fill="#3D3C3C"/>
<path d="M11.0082 12.5888C10.8449 12.6977 10.8086 12.9336 10.9174 13.0969C10.99 13.2057 11.0989 13.2602 11.2259 13.2602C11.2985 13.2602 11.371 13.242 11.4255 13.2057C12.8226 12.2259 13.8205 10.8107 14.1834 9.15954C14.2197 8.95995 14.1109 8.76037 13.9113 8.72408C13.7117 8.68779 13.5302 8.79666 13.4758 8.99624C13.1492 10.4659 12.2783 11.736 11.0082 12.5888Z" fill="#3D3C3C"/>
<path d="M9.68362 13.2784C9.57475 13.3146 9.48403 13.3509 9.35702 13.3872C9.15743 13.4417 9.04857 13.6412 9.103 13.8408C9.15743 14.0041 9.30259 14.113 9.44774 14.113C9.48403 14.113 9.52032 14.113 9.55661 14.0949C9.71991 14.0586 9.82878 14.0041 9.95579 13.9497C10.1372 13.8771 10.228 13.6594 10.1554 13.4779C10.0828 13.2784 9.86506 13.1876 9.68362 13.2784Z" fill="#3D3C3C"/>
</svg>
