<svg width="16" height="16" viewBox="0 0 16 16" fill="none" xmlns="http://www.w3.org/2000/svg">
<path d="M7.99042 0.00171885C7.97411 0.00469173 7.95781 0.00915048 7.94298 0.0136096C7.76659 0.053741 7.64208 0.21278 7.64652 0.394114V2.67714C7.64504 2.81388 7.71619 2.94171 7.83478 3.01157C7.95336 3.07994 8.09862 3.07994 8.21721 3.01157C8.33579 2.94171 8.40694 2.81388 8.40546 2.67714V0.394114C8.40991 0.284125 8.36544 0.178594 8.28688 0.104277C8.20683 0.0284732 8.09862 -0.00868567 7.99042 0.00171885ZM2.583 2.23718C2.4407 2.26245 2.32656 2.36649 2.28654 2.50472C2.24652 2.64444 2.28802 2.79308 2.39327 2.89117L4.00601 4.50832C4.09791 4.62128 4.24466 4.6733 4.38696 4.6406C4.52777 4.6079 4.63895 4.49643 4.67156 4.35523C4.70417 4.21254 4.65229 4.06539 4.53963 3.97323L2.92689 2.35609C2.84833 2.27137 2.7342 2.22826 2.61858 2.23718C2.60672 2.23718 2.59486 2.23718 2.583 2.23718ZM13.3504 2.23718C13.2644 2.24907 13.1844 2.29218 13.1251 2.35609L11.5124 3.97323C11.3997 4.06539 11.3478 4.21254 11.3804 4.35523C11.413 4.49643 11.5242 4.6079 11.665 4.6406C11.8073 4.6733 11.9541 4.62128 12.046 4.50832L13.6587 2.89117C13.7773 2.77821 13.8114 2.60134 13.7417 2.4527C13.6706 2.30258 13.5134 2.21637 13.3504 2.23718ZM7.99042 4.19916C7.97856 4.20213 7.9667 4.20659 7.95484 4.21105C7.93112 4.21254 7.90741 4.217 7.88369 4.22294C7.87924 4.2274 7.87628 4.23037 7.87183 4.23483C5.85888 4.32104 4.23131 5.96494 4.23131 8.0042C4.23131 10.0985 5.93744 11.8092 8.02599 11.8092C10.1145 11.8092 11.8207 10.0985 11.8207 8.0042C11.8207 5.97237 10.2064 4.33442 8.20387 4.23483C8.19053 4.23483 8.18163 4.22294 8.16829 4.22294C8.12975 4.20808 8.08973 4.20065 8.04971 4.19916C8.0423 4.19916 8.0334 4.19916 8.02599 4.19916C8.01413 4.19916 8.00227 4.19916 7.99042 4.19916ZM8.00227 4.96017C8.00969 4.96017 8.01858 4.96017 8.02599 4.96017C8.03785 4.96017 8.04971 4.96017 8.06157 4.96017C9.72174 4.97949 11.0617 6.33504 11.0617 8.0042C11.0617 9.68675 9.70395 11.0482 8.02599 11.0482C6.34951 11.0482 4.99025 9.68675 4.99025 8.0042C4.99025 6.33058 6.33617 4.97355 8.00227 4.96017ZM0.329913 7.6237C0.120909 7.65343 -0.0258384 7.84814 0.00380753 8.05771C0.0334534 8.26729 0.227634 8.41444 0.436638 8.38471H2.71344C2.84982 8.38619 2.97729 8.31485 3.04696 8.19594C3.11515 8.07703 3.11515 7.93137 3.04696 7.81247C2.97729 7.69356 2.84982 7.62221 2.71344 7.6237H0.436638C0.424779 7.6237 0.412921 7.6237 0.401063 7.6237C0.389204 7.6237 0.377346 7.6237 0.365488 7.6237C0.353629 7.6237 0.341771 7.6237 0.329913 7.6237ZM13.2318 7.6237C13.0228 7.65343 12.8761 7.84814 12.9057 8.05771C12.9354 8.26729 13.1295 8.41444 13.3385 8.38471H15.6153C15.7517 8.38619 15.8792 8.31485 15.9489 8.19594C16.017 8.07703 16.017 7.93137 15.9489 7.81247C15.8792 7.69356 15.7517 7.62221 15.6153 7.6237H13.3385C13.3267 7.6237 13.3148 7.6237 13.303 7.6237C13.2911 7.6237 13.2792 7.6237 13.2674 7.6237C13.2555 7.6237 13.2437 7.6237 13.2318 7.6237ZM4.23131 11.3812C4.14534 11.3931 4.0653 11.4362 4.00601 11.5001L2.39327 13.1172C2.28061 13.2094 2.22873 13.3565 2.26134 13.4992C2.29395 13.6404 2.40513 13.7519 2.54594 13.7846C2.68824 13.8173 2.83499 13.7653 2.92689 13.6523L4.53963 12.0352C4.65229 11.9267 4.68638 11.7587 4.62561 11.6145C4.56631 11.4704 4.42253 11.3782 4.26689 11.3812C4.25503 11.3812 4.24317 11.3812 4.23131 11.3812ZM11.7021 11.3812C11.5598 11.4064 11.4456 11.5105 11.4056 11.6487C11.3656 11.7884 11.4071 11.9371 11.5124 12.0352L13.1251 13.6523C13.217 13.7653 13.3637 13.8173 13.506 13.7846C13.6469 13.7519 13.758 13.6404 13.7906 13.4992C13.8232 13.3565 13.7714 13.2094 13.6587 13.1172L12.046 11.5001C11.9748 11.4243 11.877 11.3827 11.7732 11.3812C11.7614 11.3812 11.7495 11.3812 11.7377 11.3812C11.7258 11.3812 11.7139 11.3812 11.7021 11.3812ZM7.99042 12.9389C7.97411 12.9418 7.95781 12.9463 7.94298 12.9508C7.76659 12.9909 7.64208 13.1499 7.64652 13.3313V15.6143C7.64504 15.751 7.71619 15.8789 7.83478 15.9487C7.95336 16.0171 8.09862 16.0171 8.21721 15.9487C8.33579 15.8789 8.40694 15.751 8.40546 15.6143V13.3313C8.40991 13.2213 8.36544 13.1157 8.28688 13.0414C8.20683 12.9656 8.09862 12.9285 7.99042 12.9389Z" fill="#FAFAFA"/>
</svg>
